# xmcd
#
# Track frame offsets:
#	182
#	19942
#	40995
#	57492
#	79957
#	118710
#	141682
#	163127
#	183055
#	196575
#	228815
#	257320
#
# Disc length: 3682 seconds
# Revision: 47
# Processed by: cddbd v1.5.2PL0 Copyright (c) Steve Scherf et al.
# Submitted via: dBpowerAMP V12.0
#
DISCID=9e0e600c
DTITLE=B.B. King - Riding With The King
DYEAR=2000
DGENRE=Blues
TTITLE0=Riding With The King
TTITLE1=Ten Long Years
TTITLE2=Key To The Highway
TTITLE3=Marry You
TTITLE4=Three O'Clock Blues
TTITLE5=Help The Poor
TTITLE6=I Wanna Be
TTITLE7=Worried Life Blues
TTITLE8=Days Of Old
TTITLE9=When My Heart Beats Like A Hammer
TTITLE10=Hold On I'm Coming
TTITLE11=Come Rain Or Come Shine
EXTD=
EXTT0=
EXTT1=
EXTT2=
EXTT3=
EXTT4=
EXTT5=
EXTT6=
EXTT7=
EXTT8=
EXTT9=
EXTT10=
EXTT11=
PLAYORDER=
